{"accessors":[{"name":"body_1_0_positions","componentType":5126,"count":1024,"min":[-0.48750001192092896,0.15000000596046448,-0.862500011920929],"max":[0.48750001192092896,0.9750000238418579,1.0125000476837158],"type":"VEC3","bufferView":0,"byteOffset":0},{"name":"body_1_0_normals","componentType":5126,"count":1024,"min":[-1,-1,-1],"max":[1,1,1],"type":"VEC3","bufferView":1,"byteOffset":0},{"name":"body_1_0_texcoords","componentType":5126,"count":1024,"min":[-49.21260070800781,-48.21260070800781],"max":[49.21260070800781,50.21260070800781],"type":"VEC2","bufferView":2,"byteOffset":0},{"name":"body_1_0_indices","componentType":5123,"count":2004,"min":[0],"max":[1023],"type":"SCALAR","bufferView":3,"byteOffset":0},{"name":"body_1_1_positions","componentType":5126,"count":210,"min":[-0.5625,0.375,-0.862500011920929],"max":[0.5625,0.9014564752578735,0.9375],"type":"VEC3","bufferView":0,"byteOffset":12288},{"name":"body_1_1_normals","componentType":5126,"count":210,"min":[-1,-1,-1],"max":[1,1,1],"type":"VEC3","bufferView":1,"byteOffset":12288},{"name":"body_1_1_texcoords","componentType":5126,"count":210,"min":[-49.21260070800781,-44.27558898925781],"max":[49.21260070800781,-3.9188590049743652],"type":"VEC2","bufferView":2,"byteOffset":8192},{"name":"body_1_1_indices","componentType":5123,"count":516,"min":[0],"max":[209],"type":"SCALAR","bufferView":3,"byteOffset":4008},{"name":"body_1_2_positions","componentType":5126,"count":28,"min":[-0.5625,0.22499999403953552,-0.1274999976158142],"max":[0.5625,0.675000011920929,0.31717661023139954],"type":"VEC3","bufferView":0,"byteOffset":14808},{"name":"body_1_2_normals","componentType":5126,"count":28,"min":[0,0,-1],"max":[0,1,0],"type":"VEC3","bufferView":1,"byteOffset":14808},{"name":"body_1_2_texcoords","componentType":5126,"count":28,"min":[-25.59054946899414,-24.18408966064453],"max":[25.59054946899414,27.78972053527832],"type":"VEC2","bufferView":2,"byteOffset":9872},{"name":"body_1_2_indices","componentType":5123,"count":30,"min":[0],"max":[27],"type":"SCALAR","bufferView":3,"byteOffset":5040},{"name":"body_1_3_positions","componentType":5126,"count":18,"min":[-0.4124999940395355,0.6000000238418579,-0.7875000238418579],"max":[0.4124999940395355,0.9053642749786377,0.48750001192092896],"type":"VEC3","bufferView":0,"byteOffset":15144},{"name":"body_1_3_normals","componentType":5126,"count":18,"min":[-0.9805806875228882,0.19611608982086182,-0.9284766912460327],"max":[0.9805806875228882,0.6246950626373291,0.7808688282966614],"type":"VEC3","bufferView":1,"byteOffset":15144},{"name":"body_1_3_texcoords","componentType":5126,"count":18,"min":[-17.66880989074707,-30.91942024230957],"max":[17.66880989074707,-3.9188590049743652],"type":"VEC2","bufferView":2,"byteOffset":10096},{"name":"body_1_3_indices","componentType":5123,"count":30,"min":[0],"max":[17],"type":"SCALAR","bufferView":3,"byteOffset":5100},{"name":"body_1_4_positions","componentType":5126,"count":8,"min":[-0.4124999940395355,0.375,-0.862500011920929],"max":[0.4124999940395355,0.5249999761581421,-0.862500011920929],"type":"VEC3","bufferView":0,"byteOffset":15360},{"name":"body_1_4_normals","componentType":5126,"count":8,"min":[0,0,-1],"max":[0,0,-1],"type":"VEC3","bufferView":1,"byteOffset":15360},{"name":"body_1_4_texcoords","componentType":5126,"count":8,"min":[-21.653539657592773,-18.685039520263672],"max":[21.653539657592773,-10.811019897460938],"type":"VEC2","bufferView":2,"byteOffset":10240},{"name":"body_1_4_indices","componentType":5123,"count":12,"min":[0],"max":[7],"type":"SCALAR","bufferView":3,"byteOffset":5160},{"name":"body_1_5_positions","componentType":5126,"count":48,"min":[-0.3843750059604645,0.4124999940395355,0.9375],"max":[0.3843750059604645,0.5625,0.9375],"type":"VEC3","bufferView":0,"byteOffset":15456},{"name":"body_1_5_normals","componentType":5126,"count":48,"min":[0,0,1],"max":[0,0,1],"type":"VEC3","bufferView":1,"byteOffset":15456},{"name":"body_1_5_texcoords","componentType":5126,"count":48,"min":[-20.177169799804688,-20.653539657592773],"max":[20.177169799804688,-12.779529571533203],"type":"VEC2","bufferView":2,"byteOffset":10304},{"name":"body_1_5_indices","componentType":5123,"count":132,"min":[0],"max":[47],"type":"SCALAR","bufferView":3,"byteOffset":5184},{"name":"wheel_backLeft_1_0_positions","componentType":5126,"count":262,"min":[0.26249998807907104,0,-0.6449999809265137],"max":[0.48750001192092896,0.44999998807907104,-0.19499999284744263],"type":"VEC3","bufferView":0,"byteOffset":16032},{"name":"wheel_backLeft_1_0_normals","componentType":5126,"count":262,"min":[-1,-1,-1],"max":[1,1,1],"type":"VEC3","bufferView":1,"byteOffset":16032},{"name":"wheel_backLeft_1_0_texcoords","componentType":5126,"count":262,"min":[-11.811019897460938,-10.811019897460938],"max":[11.811019897460938,12.811019897460938],"type":"VEC2","bufferView":2,"byteOffset":10688},{"name":"wheel_backLeft_1_0_indices","componentType":5123,"count":498,"min":[0],"max":[261],"type":"SCALAR","bufferView":3,"byteOffset":5448},{"name":"wheel_backLeft_1_1_positions","componentType":5126,"count":273,"min":[0.44999998807907104,0.08897385746240616,-0.5560261011123657],"max":[0.48750001192092896,0.36102619767189026,-0.2839738130569458],"type":"VEC3","bufferView":0,"byteOffset":19176},{"name":"wheel_backLeft_1_1_normals","componentType":5126,"count":273,"min":[0.5160002112388611,-0.8565884828567505,-0.8565884828567505],"max":[1,0.8565884828567505,0.8565884828567505],"type":"VEC3","bufferView":1,"byteOffset":19176},{"name":"wheel_backLeft_1_1_texcoords","componentType":5126,"count":273,"min":[-6.854990005493164,-0.5416479706764221],"max":[7.874015808105469,2.922822952270508],"type":"VEC2","bufferView":2,"byteOffset":12784},{"name":"wheel_backLeft_1_1_indices","componentType":5123,"count":354,"min":[0],"max":[272],"type":"SCALAR","bufferView":3,"byteOffset":6444},{"name":"wheel_backRight_1_0_positions","componentType":5126,"count":273,"min":[-0.48750001192092896,0.08897385746240616,-0.5560261011123657],"max":[-0.44999998807907104,0.36102619767189026,-0.2839738130569458],"type":"VEC3","bufferView":0,"byteOffset":22452},{"name":"wheel_backRight_1_0_normals","componentType":5126,"count":273,"min":[-1,-0.8565884828567505,-0.8565884828567505],"max":[-0.5160002112388611,0.8565884828567505,0.8565884828567505],"type":"VEC3","bufferView":1,"byteOffset":22452},{"name":"wheel_backRight_1_0_texcoords","componentType":5126,"count":273,"min":[-6.854990005493164,-0.5416479706764221],"max":[7.874015808105469,2.922822952270508],"type":"VEC2","bufferView":2,"byteOffset":14968},{"name":"wheel_backRight_1_0_indices","componentType":5123,"count":354,"min":[0],"max":[272],"type":"SCALAR","bufferView":3,"byteOffset":7152},{"name":"wheel_backRight_1_1_positions","componentType":5126,"count":262,"min":[-0.48750001192092896,0,-0.6449999809265137],"max":[-0.26249998807907104,0.44999998807907104,-0.19499999284744263],"type":"VEC3","bufferView":0,"byteOffset":25728},{"name":"wheel_backRight_1_1_normals","componentType":5126,"count":262,"min":[-1,-1,-1],"max":[1,1,1],"type":"VEC3","bufferView":1,"byteOffset":25728},{"name":"wheel_backRight_1_1_texcoords","componentType":5126,"count":262,"min":[-11.811019897460938,-10.811019897460938],"max":[11.811019897460938,12.811019897460938],"type":"VEC2","bufferView":2,"byteOffset":17152},{"name":"wheel_backRight_1_1_indices","componentType":5123,"count":498,"min":[0],"max":[261],"type":"SCALAR","bufferView":3,"byteOffset":7860},{"name":"wheel_frontLeft_1_0_positions","componentType":5126,"count":273,"min":[0.44999998807907104,0.08897385746240616,0.4339737892150879],"max":[0.48750001192092896,0.36102619767189026,0.7060261964797974],"type":"VEC3","bufferView":0,"byteOffset":28872},{"name":"wheel_frontLeft_1_0_normals","componentType":5126,"count":273,"min":[0.5160002112388611,-0.8565884828567505,-0.8565884828567505],"max":[1,0.8565884828567505,0.8565884828567505],"type":"VEC3","bufferView":1,"byteOffset":28872},{"name":"wheel_frontLeft_1_0_texcoords","componentType":5126,"count":273,"min":[-6.854990005493164,-0.5416479706764221],"max":[7.874015808105469,2.922822952270508],"type":"VEC2","bufferView":2,"byteOffset":19248},{"name":"wheel_frontLeft_1_0_indices","componentType":5123,"count":354,"min":[0],"max":[272],"type":"SCALAR","bufferView":3,"byteOffset":8856},{"name":"wheel_frontLeft_1_1_positions","componentType":5126,"count":262,"min":[0.26249998807907104,0,0.3449999988079071],"max":[0.48750001192092896,0.44999998807907104,0.7950000166893005],"type":"VEC3","bufferView":0,"byteOffset":32148},{"name":"wheel_frontLeft_1_1_normals","componentType":5126,"count":262,"min":[-1,-1,-1],"max":[1,1,1],"type":"VEC3","bufferView":1,"byteOffset":32148},{"name":"wheel_frontLeft_1_1_texcoords","componentType":5126,"count":262,"min":[-11.811019897460938,-10.811019897460938],"max":[11.811019897460938,12.811019897460938],"type":"VEC2","bufferView":2,"byteOffset":21432},{"name":"wheel_frontLeft_1_1_indices","componentType":5123,"count":498,"min":[0],"max":[261],"type":"SCALAR","bufferView":3,"byteOffset":9564},{"name":"wheel_frontRight_1_0_positions","componentType":5126,"count":273,"min":[-0.48750001192092896,0.08897385746240616,0.4339737892150879],"max":[-0.44999998807907104,0.36102619767189026,0.7060261964797974],"type":"VEC3","bufferView":0,"byteOffset":35292},{"name":"wheel_frontRight_1_0_normals","componentType":5126,"count":273,"min":[-1,-0.8565884828567505,-0.8565884828567505],"max":[-0.5160002112388611,0.8565884828567505,0.8565884828567505],"type":"VEC3","bufferView":1,"byteOffset":35292},{"name":"wheel_frontRight_1_0_texcoords","componentType":5126,"count":273,"min":[-6.854990005493164,-0.5416479706764221],"max":[7.874015808105469,2.922822952270508],"type":"VEC2","bufferView":2,"byteOffset":23528},{"name":"wheel_frontRight_1_0_indices","componentType":5123,"count":354,"min":[0],"max":[272],"type":"SCALAR","bufferView":3,"byteOffset":10560},{"name":"wheel_frontRight_1_1_positions","componentType":5126,"count":262,"min":[-0.48750001192092896,0,0.3449999988079071],"max":[-0.26249998807907104,0.44999998807907104,0.7950000166893005],"type":"VEC3","bufferView":0,"byteOffset":38568},{"name":"wheel_frontRight_1_1_normals","componentType":5126,"count":262,"min":[-1,-1,-1],"max":[1,1,1],"type":"VEC3","bufferView":1,"byteOffset":38568},{"name":"wheel_frontRight_1_1_texcoords","componentType":5126,"count":262,"min":[-11.811019897460938,-10.811019897460938],"max":[11.811019897460938,12.811019897460938],"type":"VEC2","bufferView":2,"byteOffset":25712},{"name":"wheel_frontRight_1_1_indices","componentType":5123,"count":498,"min":[0],"max":[261],"type":"SCALAR","bufferView":3,"byteOffset":11268}],"asset":{"generator":"obj2gltf","version":"2.0"},"buffers":[{"name":"suv","byteLength":123496,"uri":"data:application/octet-stream;base64,"}],"bufferViews":[{"name":"bufferView_0","buffer":0,"byteLength":41712,"byteOffset":0,"byteStride":12,"target":34962},{"name":"bufferView_1","buffer":0,"byteLength":41712,"byteOffset":41712,"byteStride":12,"target":34962},{"name":"bufferView_2","buffer":0,"byteLength":27808,"byteOffset":83424,"byteStride":8,"target":34962},{"name":"bufferView_3","buffer":0,"byteLength":12264,"byteOffset":111232,"target":34963}],"materials":[{"name":"plastic","pbrMetallicRoughness":{"baseColorFactor":[0.3764706,0.3764706,0.3764706,1],"metallicFactor":0,"roughnessFactor":1},"emissiveFactor":[0,0,0],"alphaMode":"OPAQUE","doubleSided":false},{"name":"paintGreen","pbrMetallicRoughness":{"baseColorFactor":[0.2392157,0.8470588,0.5058824,1],"metallicFactor":0,"roughnessFactor":1},"emissiveFactor":[0,0,0],"alphaMode":"OPAQUE","doubleSided":false},{"name":"_defaultMat","pbrMetallicRoughness":{"baseColorFactor":[1,1,1,1],"metallicFactor":0,"roughnessFactor":1},"emissiveFactor":[0,0,0],"alphaMode":"OPAQUE","doubleSided":false},{"name":"window","pbrMetallicRoughness":{"baseColorFactor":[0.9372549,0.9372549,0.9372549,1],"metallicFactor":0,"roughnessFactor":1},"emissiveFactor":[0,0,0],"alphaMode":"OPAQUE","doubleSided":false},{"name":"lightBack","pbrMetallicRoughness":{"baseColorFactor":[1,0.3490196,0.227451,1],"metallicFactor":0,"roughnessFactor":1},"emissiveFactor":[0,0,0],"alphaMode":"OPAQUE","doubleSided":false},{"name":"lightFront","pbrMetallicRoughness":{"baseColorFactor":[1,0.9762833,0.9292453,1],"metallicFactor":0,"roughnessFactor":1},"emissiveFactor":[0,0,0],"alphaMode":"OPAQUE","doubleSided":false},{"name":"carTire","pbrMetallicRoughness":{"baseColorFactor":[0.2392157,0.2392157,0.2392157,1],"metallicFactor":0,"roughnessFactor":1},"emissiveFactor":[0,0,0],"alphaMode":"OPAQUE","doubleSided":false}],"meshes":[{"name":"body_1","primitives":[{"attributes":{"POSITION":0,"NORMAL":1,"TEXCOORD_0":2},"indices":3,"material":0,"mode":4},{"attributes":{"POSITION":4,"NORMAL":5,"TEXCOORD_0":6},"indices":7,"material":1,"mode":4},{"attributes":{"POSITION":8,"NORMAL":9,"TEXCOORD_0":10},"indices":11,"material":2,"mode":4},{"attributes":{"POSITION":12,"NORMAL":13,"TEXCOORD_0":14},"indices":15,"material":3,"mode":4},{"attributes":{"POSITION":16,"NORMAL":17,"TEXCOORD_0":18},"indices":19,"material":4,"mode":4},{"attributes":{"POSITION":20,"NORMAL":21,"TEXCOORD_0":22},"indices":23,"material":5,"mode":4}]},{"name":"wheel_backLeft_1","primitives":[{"attributes":{"POSITION":24,"NORMAL":25,"TEXCOORD_0":26},"indices":27,"material":6,"mode":4},{"attributes":{"POSITION":28,"NORMAL":29,"TEXCOORD_0":30},"indices":31,"material":2,"mode":4}]},{"name":"wheel_backRight_1","primitives":[{"attributes":{"POSITION":32,"NORMAL":33,"TEXCOORD_0":34},"indices":35,"material":2,"mode":4},{"attributes":{"POSITION":36,"NORMAL":37,"TEXCOORD_0":38},"indices":39,"material":6,"mode":4}]},{"name":"wheel_frontLeft_1","primitives":[{"attributes":{"POSITION":40,"NORMAL":41,"TEXCOORD_0":42},"indices":43,"material":2,"mode":4},{"attributes":{"POSITION":44,"NORMAL":45,"TEXCOORD_0":46},"indices":47,"material":6,"mode":4}]},{"name":"wheel_frontRight_1","primitives":[{"attributes":{"POSITION":48,"NORMAL":49,"TEXCOORD_0":50},"indices":51,"material":2,"mode":4},{"attributes":{"POSITION":52,"NORMAL":53,"TEXCOORD_0":54},"indices":55,"material":6,"mode":4}]}],"nodes":[{"name":"body","mesh":0},{"name":"wheel_backLeft","mesh":1},{"name":"wheel_backRight","mesh":2},{"name":"wheel_frontLeft","mesh":3},{"name":"wheel_frontRight","mesh":4}],"scene":0,"scenes":[{"nodes":[0,1,2,3,4]}]}